<svg width="21" height="18" viewBox="0 0 21 18" fill="none" xmlns="http://www.w3.org/2000/svg">
<path d="M7.25 17.9998C8.07843 17.9998 8.75 17.3282 8.75 16.4998C8.75 15.6713 8.07843 14.9998 7.25 14.9998C6.42157 14.9998 5.75 15.6713 5.75 16.4998C5.75 17.3282 6.42157 17.9998 7.25 17.9998Z" fill="#1B1917"/>
<path d="M17.75 17.9998C18.5784 17.9998 19.25 17.3282 19.25 16.4998C19.25 15.6713 18.5784 14.9998 17.75 14.9998C16.9216 14.9998 16.25 15.6713 16.25 16.4998C16.25 17.3282 16.9216 17.9998 17.75 17.9998Z" fill="#1B1917"/>
<path d="M20.4125 2.66132C20.3071 2.53243 20.1744 2.42863 20.0239 2.35744C19.8734 2.28626 19.709 2.24947 19.5425 2.24976H5.27609L4.98875 0.619443C4.95811 0.445785 4.86726 0.288475 4.73216 0.175147C4.59706 0.0618185 4.42634 -0.000281191 4.25 -0.000244124H1.25C1.05109 -0.000244124 0.860322 0.0787737 0.71967 0.219426C0.579018 0.360078 0.5 0.550843 0.5 0.749756C0.5 0.948668 0.579018 1.13943 0.71967 1.28009C0.860322 1.42074 1.05109 1.49976 1.25 1.49976H3.62094L5.76125 13.6301C5.79189 13.8037 5.88274 13.961 6.01784 14.0744C6.15294 14.1877 6.32366 14.2498 6.5 14.2498H18.5C18.6989 14.2498 18.8897 14.1707 19.0303 14.0301C19.171 13.8894 19.25 13.6987 19.25 13.4998C19.25 13.3008 19.171 13.1101 19.0303 12.9694C18.8897 12.8288 18.6989 12.7498 18.5 12.7498H7.12906L6.86469 11.2498H18.1925C18.4526 11.2494 18.7046 11.1592 18.9058 10.9945C19.1071 10.8297 19.2452 10.6005 19.2969 10.3455L20.6469 3.59554C20.6794 3.43218 20.6753 3.26364 20.6347 3.10208C20.5942 2.94052 20.5183 2.78998 20.4125 2.66132Z" fill="#1B1917"/>
</svg>
