<svg width="20" height="20" viewBox="0 0 20 20" fill="none" xmlns="http://www.w3.org/2000/svg">
<path d="M18.9997 18.9998L14.6567 14.6568M14.6567 14.6568C15.3996 13.9139 15.9889 13.032 16.3909 12.0613C16.793 11.0907 16.9999 10.0504 16.9999 8.99978C16.9999 7.94918 16.793 6.90886 16.3909 5.93823C15.9889 4.9676 15.3996 4.08567 14.6567 3.34278C13.9138 2.59989 13.0319 2.0106 12.0613 1.60855C11.0906 1.2065 10.0503 0.999573 8.99972 0.999573C7.94912 0.999573 6.9088 1.2065 5.93817 1.60855C4.96754 2.0106 4.08561 2.59989 3.34272 3.34278C1.84239 4.84311 0.999512 6.87799 0.999512 8.99978C0.999512 11.1216 1.84239 13.1564 3.34272 14.6568C4.84305 16.1571 6.87793 17 8.99972 17C11.1215 17 13.1564 16.1571 14.6567 14.6568Z" stroke="white" stroke-width="1.5" stroke-linecap="round" stroke-linejoin="round"/>
</svg>
