<svg width="155" height="30" viewBox="0 0 155 30" fill="none" xmlns="http://www.w3.org/2000/svg">
<path d="M1.674 3.776H10.26C13.23 3.776 15.588 4.631 17.334 6.341C19.08 8.033 19.953 10.364 19.953 13.334C19.953 16.502 19.107 18.905 17.415 20.543C15.741 22.181 13.32 23 10.152 23H1.674V3.776ZM7.452 8.609V18.14H9.774C11.196 18.14 12.267 17.726 12.987 16.898C13.725 16.07 14.094 14.918 14.094 13.442C14.094 11.84 13.662 10.634 12.798 9.824C11.952 9.014 10.755 8.609 9.207 8.609H7.452ZM27.9266 3.776V7.502H22.5806V3.776H27.9266ZM27.9266 9.068V23H22.5806V9.068H27.9266ZM45.4613 18.815C45.0473 20.291 44.1473 21.425 42.7613 22.217C41.3933 23.009 39.8903 23.405 38.2523 23.405C35.9843 23.405 34.1033 22.766 32.6093 21.488C31.1153 20.21 30.3683 18.446 30.3683 16.196C30.3683 14.018 31.0883 12.227 32.5283 10.823C33.9863 9.419 35.8313 8.717 38.0633 8.717C40.4033 8.717 42.2663 9.446 43.6523 10.904C45.0563 12.362 45.7583 14.324 45.7583 16.79V17.195H35.4983C35.5343 18.077 35.7863 18.761 36.2543 19.247C36.7403 19.733 37.3973 19.976 38.2253 19.976C39.2153 19.976 39.9623 19.589 40.4663 18.815H45.4613ZM40.5473 14.522C40.4033 12.938 39.5843 12.146 38.0903 12.146C36.6503 12.146 35.7953 12.938 35.5253 14.522H40.5473ZM60.9291 13.145H56.0961C56.0061 12.641 55.8261 12.299 55.5561 12.119C55.2861 11.939 54.8361 11.849 54.2061 11.849C53.2341 11.849 52.7481 12.128 52.7481 12.686C52.7481 12.884 52.8201 13.064 52.9641 13.226C53.1261 13.37 53.3601 13.496 53.6661 13.604C53.9721 13.694 54.2331 13.766 54.4491 13.82C54.6651 13.856 54.9441 13.901 55.2861 13.955C55.6281 13.991 55.8081 14.009 55.8261 14.009C56.4741 14.135 57.0051 14.252 57.4191 14.36C57.8511 14.45 58.3371 14.612 58.8771 14.846C59.4171 15.08 59.8491 15.341 60.1731 15.629C60.4971 15.917 60.7671 16.304 60.9831 16.79C61.2171 17.276 61.3341 17.834 61.3341 18.464C61.3341 19.994 60.7131 21.191 59.4711 22.055C58.2291 22.919 56.5101 23.351 54.3141 23.351C49.8681 23.351 47.5101 21.686 47.2401 18.356H52.2891C52.3611 18.932 52.5591 19.355 52.8831 19.625C53.2251 19.877 53.7381 20.003 54.4221 20.003C54.9441 20.003 55.3491 19.904 55.6371 19.706C55.9431 19.508 56.0961 19.238 56.0961 18.896C56.0961 18.554 55.9521 18.311 55.6641 18.167C55.3761 18.023 54.8271 17.861 54.0171 17.681C53.7471 17.627 53.5311 17.582 53.3691 17.546C51.5331 17.15 50.3091 16.799 49.6971 16.493C48.2571 15.791 47.5371 14.648 47.5371 13.064C47.5371 11.642 48.1131 10.553 49.2651 9.797C50.4351 9.041 52.1181 8.663 54.3141 8.663C56.2041 8.663 57.7431 8.996 58.9311 9.662C60.1191 10.31 60.7851 11.471 60.9291 13.145ZM77.972 18.815C77.558 20.291 76.658 21.425 75.272 22.217C73.904 23.009 72.401 23.405 70.763 23.405C68.495 23.405 66.614 22.766 65.12 21.488C63.626 20.21 62.879 18.446 62.879 16.196C62.879 14.018 63.599 12.227 65.039 10.823C66.497 9.419 68.342 8.717 70.574 8.717C72.914 8.717 74.777 9.446 76.163 10.904C77.567 12.362 78.269 14.324 78.269 16.79V17.195H68.009C68.045 18.077 68.297 18.761 68.765 19.247C69.251 19.733 69.908 19.976 70.736 19.976C71.726 19.976 72.473 19.589 72.977 18.815H77.972ZM73.058 14.522C72.914 12.938 72.095 12.146 70.601 12.146C69.161 12.146 68.306 12.938 68.036 14.522H73.058ZM85.9608 3.776V23H80.6148V3.776H85.9608ZM110.929 9.446H107.716C107.518 7.196 106.123 6.071 103.531 6.071C102.379 6.071 101.479 6.314 100.831 6.8C100.183 7.268 99.8591 7.916 99.8591 8.744C99.8591 9.518 100.093 10.049 100.561 10.337C101.047 10.625 102.109 10.976 103.747 11.39C104.179 11.516 104.512 11.606 104.746 11.66C106.888 12.2 108.346 12.686 109.12 13.118C110.83 14.036 111.685 15.467 111.685 17.411C111.685 18.257 111.541 19.022 111.253 19.706C110.965 20.39 110.578 20.966 110.092 21.434C109.606 21.884 109.03 22.262 108.364 22.568C107.698 22.874 107.005 23.09 106.285 23.216C105.565 23.36 104.818 23.432 104.044 23.432C101.632 23.432 99.6791 22.856 98.1851 21.704C96.6911 20.552 95.9441 18.86 95.9441 16.628H99.2651C99.2651 18.032 99.7241 19.076 100.642 19.76C101.56 20.426 102.757 20.759 104.233 20.759C105.529 20.759 106.537 20.498 107.257 19.976C107.995 19.436 108.364 18.689 108.364 17.735C108.364 17.123 108.166 16.628 107.77 16.25C107.392 15.854 106.978 15.575 106.528 15.413C106.078 15.251 105.295 15.026 104.179 14.738C104.053 14.702 103.954 14.675 103.882 14.657C101.488 14.045 99.9131 13.541 99.1571 13.145C97.5911 12.335 96.7541 11.084 96.6461 9.392C96.6461 9.266 96.6461 9.14 96.6461 9.014C96.6461 7.304 97.2851 5.945 98.5631 4.937C99.8591 3.911 101.587 3.398 103.747 3.398C105.835 3.398 107.536 3.893 108.85 4.883C110.164 5.873 110.857 7.394 110.929 9.446ZM117.151 9.068V10.931C118.087 9.419 119.599 8.663 121.687 8.663C123.613 8.663 125.152 9.338 126.304 10.688C127.456 12.038 128.032 13.838 128.032 16.088C128.032 18.284 127.465 20.048 126.331 21.38C125.215 22.694 123.721 23.351 121.849 23.351C119.869 23.351 118.357 22.622 117.313 21.164V28.157H114.262V9.068H117.151ZM121.066 11.147C119.86 11.147 118.915 11.579 118.231 12.443C117.547 13.307 117.205 14.504 117.205 16.034C117.205 17.546 117.547 18.734 118.231 19.598C118.933 20.462 119.896 20.894 121.12 20.894C122.29 20.894 123.217 20.462 123.901 19.598C124.585 18.734 124.927 17.564 124.927 16.088C124.927 14.576 124.576 13.379 123.874 12.497C123.19 11.597 122.254 11.147 121.066 11.147ZM137.167 8.663C139.291 8.663 140.983 9.329 142.243 10.661C143.503 11.993 144.133 13.784 144.133 16.034C144.133 18.302 143.503 20.102 142.243 21.434C141.001 22.766 139.309 23.432 137.167 23.432C134.989 23.432 133.261 22.766 131.983 21.434C130.705 20.102 130.066 18.302 130.066 16.034C130.066 13.784 130.705 11.993 131.983 10.661C133.279 9.329 135.007 8.663 137.167 8.663ZM139.975 12.416C139.291 11.534 138.337 11.093 137.113 11.093C135.889 11.093 134.926 11.534 134.224 12.416C133.522 13.298 133.171 14.504 133.171 16.034C133.171 17.6 133.522 18.824 134.224 19.706C134.926 20.588 135.898 21.029 137.14 21.029C138.346 21.029 139.291 20.588 139.975 19.706C140.677 18.806 141.028 17.573 141.028 16.007C141.028 14.477 140.677 13.28 139.975 12.416ZM153.523 9.068V11.309H150.715V18.653C150.715 19.085 150.724 19.391 150.742 19.571C150.76 19.733 150.814 19.922 150.904 20.138C150.994 20.336 151.147 20.471 151.363 20.543C151.597 20.615 151.912 20.651 152.308 20.651C152.812 20.651 153.217 20.633 153.523 20.597V23.027C152.911 23.099 152.218 23.135 151.444 23.135C150.904 23.135 150.427 23.09 150.013 23C149.617 22.928 149.284 22.838 149.014 22.73C148.744 22.622 148.519 22.442 148.339 22.19C148.159 21.92 148.015 21.704 147.907 21.542C147.817 21.362 147.745 21.056 147.691 20.624C147.655 20.192 147.637 19.868 147.637 19.652C147.637 19.418 147.637 19.022 147.637 18.464C147.637 18.23 147.637 18.059 147.637 17.951V11.309H145.315V9.068H147.637V4.883H150.715V9.068H153.523Z" fill="white"/>
<path d="M28 0H22L25 3L28 0Z" fill="#FFA500"/>
<rect x="22" y="3" width="8" height="5" fill="#070707"/>
<path d="M28 5V23H22V10.8235C22 7.85882 26 5.70588 28 5Z" fill="white"/>
</svg>
