<svg width="18" height="18" viewBox="0 0 18 18" fill="none" xmlns="http://www.w3.org/2000/svg">
<path d="M16.4385 4.29834C13.826 0.248344 8.47604 -0.951656 4.33854 1.56084C0.301039 4.07334 -0.998961 9.54834 1.61354 13.5858L1.82604 13.9108L0.951039 17.1858L4.22604 16.3108L4.55104 16.5233C5.96354 17.2858 7.50104 17.7233 9.02604 17.7233C10.6635 17.7233 12.301 17.2858 13.7135 16.4108C17.751 13.7858 18.951 8.42334 16.4385 4.27334V4.29834ZM14.151 12.7233C13.7135 13.3733 13.1635 13.8108 12.401 13.9233C11.9635 13.9233 11.4135 14.1358 9.23854 13.2733C7.38854 12.3983 5.85104 10.9733 4.76354 9.33584C4.11354 8.57335 3.77604 7.58584 3.67604 6.59834C3.67604 5.72334 4.00104 4.96084 4.55104 4.41084C4.76354 4.19834 4.98854 4.08584 5.20104 4.08584H5.75104C5.96354 4.08584 6.18854 4.08584 6.30104 4.52334C6.51354 5.07334 7.06354 6.38584 7.06354 6.49834C7.17604 6.61084 7.12604 7.44834 6.62604 7.92334C6.35104 8.23584 6.30104 8.24834 6.41354 8.47334C6.85104 9.12334 7.40104 9.78584 7.93854 10.3358C8.58854 10.8858 9.25104 11.3233 10.0135 11.6483C10.226 11.7608 10.451 11.7608 10.5635 11.5358C10.676 11.3233 11.2135 10.7733 11.4385 10.5483C11.651 10.3358 11.7635 10.3358 11.9885 10.4358L13.7385 11.3108C13.951 11.4233 14.176 11.5233 14.2885 11.6358C14.401 11.9608 14.401 12.3983 14.176 12.7233H14.151Z" fill="white"/>
</svg>
