<svg width="20" height="20" viewBox="0 0 20 20" fill="none" xmlns="http://www.w3.org/2000/svg">
<path d="M10 6.75C9.13805 6.75 8.3114 7.09241 7.7019 7.7019C7.09241 8.3114 6.75 9.13805 6.75 10C6.75 10.862 7.09241 11.6886 7.7019 12.2981C8.3114 12.9076 9.13805 13.25 10 13.25C10.862 13.25 11.6886 12.9076 12.2981 12.2981C12.9076 11.6886 13.25 10.862 13.25 10C13.25 9.13805 12.9076 8.3114 12.2981 7.7019C11.6886 7.09241 10.862 6.75 10 6.75Z" fill="white"/>
<path fill-rule="evenodd" clip-rule="evenodd" d="M4.77 1.08199C8.24603 0.696915 11.754 0.696915 15.23 1.08199C17.129 1.29399 18.66 2.78899 18.883 4.69499C19.2949 8.21966 19.2949 11.7803 18.883 15.305C18.66 17.211 17.129 18.706 15.231 18.919C11.7546 19.3041 8.24636 19.3041 4.77 18.919C2.871 18.706 1.34 17.211 1.117 15.306C0.704979 11.781 0.704979 8.21999 1.117 4.69499C1.34 2.78899 2.871 1.29399 4.77 1.08199ZM15 3.99999C14.7348 3.99999 14.4804 4.10534 14.2929 4.29288C14.1054 4.48042 14 4.73477 14 4.99999C14 5.2652 14.1054 5.51956 14.2929 5.70709C14.4804 5.89463 14.7348 5.99999 15 5.99999C15.2652 5.99999 15.5196 5.89463 15.7071 5.70709C15.8946 5.51956 16 5.2652 16 4.99999C16 4.73477 15.8946 4.48042 15.7071 4.29288C15.5196 4.10534 15.2652 3.99999 15 3.99999ZM5.25 9.99999C5.25 8.74021 5.75044 7.53203 6.64124 6.64123C7.53204 5.75043 8.74022 5.24999 10 5.24999C11.2598 5.24999 12.468 5.75043 13.3588 6.64123C14.2496 7.53203 14.75 8.74021 14.75 9.99999C14.75 11.2598 14.2496 12.4679 13.3588 13.3587C12.468 14.2495 11.2598 14.75 10 14.75C8.74022 14.75 7.53204 14.2495 6.64124 13.3587C5.75044 12.4679 5.25 11.2598 5.25 9.99999Z" fill="white"/>
</svg>
