<svg width="32" height="8" viewBox="0 0 32 8" fill="none" xmlns="http://www.w3.org/2000/svg">
<path d="M6.56 4.57596C7.01639 4.57627 7.46262 4.44235 7.84225 4.19114C8.22188 3.93992 8.51784 3.5827 8.69272 3.16465C8.86759 2.74661 8.91351 2.28652 8.82466 1.84259C8.73582 1.39866 8.51621 0.990835 8.1936 0.670697C7.871 0.350558 7.4599 0.132491 7.0123 0.0440801C6.56471 -0.0443308 6.10072 0.00088622 5.67904 0.174011C5.25736 0.347136 4.89693 0.640392 4.64335 1.01668C4.38976 1.39297 4.2544 1.83539 4.2544 2.28798C4.25482 2.89439 4.49782 3.47586 4.93007 3.9048C5.36231 4.33375 5.9485 4.57512 6.56 4.57596ZM6.56 0.339547C6.94822 0.339547 7.32772 0.453688 7.65053 0.66754C7.97334 0.881392 8.22497 1.18536 8.37361 1.541C8.52224 1.89665 8.56122 2.28801 8.48559 2.66562C8.40997 3.04323 8.22316 3.39013 7.94876 3.66246C7.67436 3.9348 7.3247 4.12034 6.94398 4.19564C6.56326 4.27094 6.16858 4.23261 5.80982 4.0855C5.45107 3.93839 5.14435 3.68911 4.92844 3.36916C4.71253 3.04921 4.59712 2.67296 4.5968 2.28798C4.59807 1.77203 4.80531 1.27757 5.17321 0.912741C5.54111 0.547909 6.03972 0.342392 6.56 0.341135M3.128 2.71797C3.33091 2.71828 3.52936 2.6589 3.69823 2.54734C3.8671 2.43577 3.9988 2.27704 4.07667 2.09122C4.15454 1.90541 4.17508 1.70086 4.13569 1.50347C4.0963 1.30607 3.99874 1.1247 3.85538 0.982308C3.71201 0.839911 3.52927 0.742888 3.33027 0.703516C3.13128 0.664144 2.92499 0.684192 2.73749 0.761124C2.54999 0.838055 2.38972 0.968412 2.27696 1.1357C2.16419 1.30299 2.104 1.49969 2.104 1.70091C2.104 1.97023 2.21189 2.22852 2.40392 2.41896C2.59596 2.6094 2.85642 2.71638 3.128 2.71638M3.128 0.767949C3.31376 0.767949 3.49534 0.822574 3.64979 0.924915C3.80424 1.02726 3.92462 1.17272 3.99571 1.3429C4.06679 1.51309 4.08539 1.70036 4.04915 1.88103C4.01292 2.0617 3.92347 2.22765 3.79212 2.35791C3.66077 2.48816 3.49342 2.57687 3.31123 2.61281C3.12904 2.64874 2.9402 2.6303 2.76858 2.55981C2.59697 2.48931 2.45028 2.36993 2.34708 2.21677C2.24388 2.06361 2.1888 1.88353 2.1888 1.69933C2.19006 1.45269 2.28942 1.21652 2.46528 1.04212C2.64114 0.867728 2.8793 0.7692 3.128 0.767949ZM7.1808 4.63943C6.84561 4.63943 6.51795 4.73802 6.23928 4.92272C5.9606 5.10742 5.74342 5.36994 5.61523 5.67706C5.48703 5.98419 5.45357 6.32212 5.51908 6.64811C5.58458 6.97409 5.74612 7.27349 5.98325 7.50842C6.22037 7.74334 6.52243 7.90325 6.85122 7.96791C7.18001 8.03256 7.52075 7.99906 7.83033 7.87164C8.13991 7.74422 8.40443 7.52861 8.59042 7.25208C8.77641 6.97555 8.87552 6.65052 8.8752 6.31813C8.87435 5.87289 8.69551 5.44616 8.37789 5.13147C8.06027 4.81679 7.62978 4.63985 7.1808 4.63943ZM7.1808 7.7858C6.88808 7.7858 6.60194 7.69972 6.35856 7.53845C6.11517 7.37718 5.92548 7.14796 5.81346 6.87978C5.70144 6.6116 5.67213 6.3165 5.72924 6.0318C5.78634 5.7471 5.9273 5.48558 6.13428 5.28033C6.34126 5.07507 6.60498 4.93529 6.89207 4.87866C7.17916 4.82203 7.47674 4.85109 7.74717 4.96218C8.01761 5.07326 8.24875 5.26137 8.41138 5.50273C8.574 5.74409 8.6608 6.02785 8.6608 6.31813C8.6608 6.70738 8.50487 7.08069 8.22732 7.35593C7.94976 7.63117 7.57332 7.7858 7.1808 7.7858ZM5.2512 5.31218C5.25141 5.65416 5.18364 5.99283 5.05177 6.30883C4.91989 6.62482 4.7265 6.91194 4.48265 7.15376C4.2388 7.39558 3.94927 7.58736 3.63062 7.71813C3.31198 7.84891 2.97046 7.91611 2.6256 7.91591C2.28074 7.91611 1.93923 7.84891 1.62058 7.71813C1.30193 7.58736 1.0124 7.39558 0.768552 7.15376C0.5247 6.91194 0.331308 6.62482 0.199434 6.30883C0.0675598 5.99283 -0.000209855 5.65416 4.88147e-07 5.31218C-0.000209855 4.97019 0.0675598 4.63152 0.199434 4.31553C0.331308 3.99953 0.5247 3.71242 0.768552 3.4706C1.0124 3.22878 1.30193 3.037 1.62058 2.90622C1.93923 2.77545 2.28074 2.70824 2.6256 2.70845C2.97046 2.70824 3.31198 2.77545 3.63062 2.90622C3.94927 3.037 4.2388 3.22878 4.48265 3.4706C4.7265 3.71242 4.91989 3.99953 5.05177 4.31553C5.18364 4.63152 5.25141 4.97019 5.2512 5.31218ZM21.3152 2.47997H22.6624V7.50654H21.3152V2.47997ZM22.9712 1.12654C22.9737 1.25448 22.9508 1.38167 22.9038 1.50083C22.8568 1.62 22.7865 1.7288 22.6971 1.82104C22.6076 1.91328 22.5008 1.98714 22.3825 2.0384C22.2643 2.08966 22.137 2.11732 22.008 2.11979C21.8789 2.12232 21.7505 2.09956 21.6302 2.05282C21.5099 2.00608 21.4001 1.93628 21.3071 1.84741C21.2141 1.75854 21.1396 1.65235 21.088 1.53492C21.0364 1.41748 21.0087 1.29111 21.0064 1.16303C21.0041 1.03509 21.0272 0.907945 21.0744 0.788861C21.1216 0.669778 21.1921 0.561088 21.2816 0.468999C21.3712 0.37691 21.4783 0.303225 21.5966 0.252156C21.7149 0.201086 21.8422 0.173632 21.9712 0.17136C22.2315 0.166687 22.483 0.264658 22.6705 0.443753C22.858 0.622849 22.9662 0.868423 22.9712 1.12654ZM25.3328 1.14558H23.9856V2.47838H23.2V3.68108H23.9872V5.8215C23.9527 6.04606 23.9699 6.27544 24.0374 6.4925C24.1049 6.70956 24.221 6.90868 24.377 7.07499C24.533 7.2413 24.7249 7.3705 24.9383 7.45292C25.1518 7.53534 25.3813 7.56886 25.6096 7.55097C25.9306 7.55387 26.2488 7.49291 26.5456 7.37168V6.12614C26.3842 6.1833 26.2146 6.21438 26.0432 6.21817C25.9468 6.23334 25.8481 6.22569 25.7552 6.19583C25.6624 6.16598 25.5779 6.11477 25.5088 6.04639C25.4397 5.97801 25.3879 5.8944 25.3576 5.80237C25.3273 5.71034 25.3193 5.61251 25.3344 5.51686V3.67949H26.5456V2.47838H25.3344L25.3328 1.14558ZM15.6528 2.47838L17.5824 7.50813H18.9856L20.8816 2.47838H19.4656L18.2672 5.66283L17.0672 2.47997L15.6528 2.47838ZM31.232 3.15906C30.8027 2.73285 30.2376 2.46745 29.6331 2.4081C29.0285 2.34875 28.4219 2.49912 27.9167 2.83359C27.4114 3.16805 27.0387 3.66591 26.8622 4.24233C26.6856 4.81875 26.716 5.43805 26.9483 5.99471C27.1806 6.55136 27.6003 7.01092 28.136 7.29507C28.6716 7.57921 29.2901 7.67037 29.886 7.553C30.4818 7.43562 31.0182 7.11699 31.4037 6.65139C31.7891 6.18579 31.9999 5.60203 32 4.9996C32.0001 4.65783 31.9324 4.31938 31.8006 4.00357C31.6688 3.68777 31.4756 3.4008 31.232 3.15906ZM30.56 5.48036C30.4632 5.71235 30.2992 5.91066 30.0887 6.0502C29.8782 6.18975 29.6307 6.26426 29.3776 6.26431C29.1244 6.26436 28.8769 6.18996 28.6663 6.05051C28.4558 5.91105 28.2917 5.71282 28.1948 5.48087C28.0979 5.24892 28.0725 4.99368 28.1219 4.74743C28.1712 4.50118 28.2931 4.27498 28.4722 4.09744C28.6512 3.9199 28.8793 3.799 29.1276 3.75002C29.3759 3.70104 29.6333 3.7262 29.8672 3.82229C30.1008 3.91856 30.3004 4.08132 30.4408 4.29001C30.5812 4.49871 30.6561 4.74397 30.656 4.99484C30.6564 5.16136 30.6238 5.32634 30.56 5.48036ZM12.2272 0.352241L9.4656 7.50813H10.9504L11.52 6.01507H14.4512L15.0224 7.50972H16.4944L13.744 0.353829L12.2272 0.352241ZM12.0256 4.69972L12.9856 2.18167L13.9456 4.69972H12.0256Z" fill="white"/>
</svg>
