<svg width="16" height="15" viewBox="0 0 16 15" fill="none" xmlns="http://www.w3.org/2000/svg">
<path d="M10.7961 9.75629L10.4169 10.1338C10.4169 10.1338 9.51441 11.0305 7.05191 8.58212C4.58941 6.13379 5.49191 5.23712 5.49191 5.23712L5.73024 4.99879C6.31941 4.41379 6.37524 3.47379 5.86108 2.78712L4.81108 1.38462C4.17441 0.534618 2.94524 0.422118 2.21608 1.14712L0.907745 2.44712C0.546911 2.80712 0.305245 3.27212 0.334411 3.78878C0.409411 5.11129 1.00774 7.95545 4.34441 11.2738C7.88358 14.7921 11.2044 14.9321 12.5619 14.8055C12.9919 14.7655 13.3652 14.5471 13.6661 14.2471L14.8494 13.0705C15.6494 12.2763 15.4244 10.9138 14.4011 10.358L12.8094 9.49212C12.1377 9.12795 11.3211 9.23462 10.7961 9.75629Z" fill="white"/>
</svg>
