<svg width="16" height="18" viewBox="0 0 16 18" fill="none" xmlns="http://www.w3.org/2000/svg">
<path d="M6.61425 0.499521C6.67795 0.434303 6.75406 0.382506 6.8381 0.347188C6.92214 0.31187 7.01241 0.293745 7.10357 0.293885C7.19473 0.294025 7.28494 0.312426 7.36887 0.348002C7.4528 0.383578 7.52876 0.435608 7.59225 0.501021L15.3653 8.47652C15.5018 8.61658 15.5782 8.80443 15.5782 9.00002C15.5782 9.19561 15.5018 9.38346 15.3653 9.52352L7.59225 17.499C7.52866 17.5643 7.45263 17.6163 7.36864 17.6517C7.28465 17.6871 7.19441 17.7054 7.10325 17.7054C7.01209 17.7054 6.92186 17.6871 6.83787 17.6517C6.75388 17.6163 6.67785 17.5643 6.61425 17.499C6.48341 17.3651 6.41016 17.1853 6.41016 16.998C6.41016 16.8108 6.48341 16.631 6.61425 16.497L13.9238 9.00002L6.61425 1.50002C6.48386 1.36615 6.41089 1.18665 6.41089 0.999771C6.41089 0.812889 6.48386 0.633393 6.61425 0.499521ZM0.614254 0.499521C0.677948 0.434303 0.754062 0.382506 0.838103 0.347188C0.922145 0.31187 1.01241 0.293745 1.10357 0.293885C1.19473 0.294025 1.28494 0.312426 1.36887 0.348002C1.4528 0.383578 1.52876 0.435608 1.59225 0.501021L9.36525 8.47652C9.50177 8.61658 9.57818 8.80443 9.57818 9.00002C9.57818 9.19561 9.50177 9.38346 9.36525 9.52352L1.59225 17.499C1.52866 17.5643 1.45263 17.6163 1.36864 17.6517C1.28465 17.6871 1.19441 17.7054 1.10325 17.7054C1.01209 17.7054 0.921856 17.6871 0.837869 17.6517C0.753882 17.6163 0.677848 17.5643 0.614254 17.499C0.483409 17.3651 0.410156 17.1853 0.410156 16.998C0.410156 16.8108 0.483409 16.631 0.614254 16.497L7.92375 9.00002L0.614254 1.50002C0.483858 1.36615 0.410888 1.18665 0.410888 0.999771C0.410888 0.812889 0.483858 0.633393 0.614254 0.499521Z" fill="#FFA500"/>
</svg>
