<svg width="20" height="20" viewBox="0 0 20 20" fill="none" xmlns="http://www.w3.org/2000/svg">
<path d="M6.10467 1.29175C6.10467 1.10941 6.03223 0.934543 5.9033 0.805612C5.77437 0.676681 5.5995 0.604248 5.41717 0.604248C5.23483 0.604248 5.05996 0.676681 4.93103 0.805612C4.8021 0.934543 4.72967 1.10941 4.72967 1.29175V2.74008C3.40967 2.8455 2.54433 3.104 1.90817 3.74108C1.27108 4.37725 1.01258 5.2435 0.90625 6.56258H19.0947C18.9884 5.24258 18.7299 4.37725 18.0928 3.74108C17.4567 3.104 16.5904 2.8455 15.2713 2.73916V1.29175C15.2713 1.10941 15.1989 0.934543 15.07 0.805612C14.941 0.676681 14.7662 0.604248 14.5838 0.604248C14.4015 0.604248 14.2266 0.676681 14.0977 0.805612C13.9688 0.934543 13.8963 1.10941 13.8963 1.29175V2.67866C13.2867 2.66675 12.6029 2.66675 11.8338 2.66675H8.16717C7.39808 2.66675 6.71425 2.66675 6.10467 2.67866V1.29175Z" fill="#FFA500"/>
<path fill-rule="evenodd" clip-rule="evenodd" d="M0.833984 10C0.833984 9.23092 0.833984 8.54708 0.845901 7.9375H19.1554C19.1673 8.54708 19.1673 9.23092 19.1673 10V11.8333C19.1673 15.2901 19.1673 17.0189 18.093 18.0923C17.0187 19.1657 15.2907 19.1667 11.834 19.1667H8.16732C4.71057 19.1667 2.98173 19.1667 1.90832 18.0923C0.834901 17.018 0.833984 15.2901 0.833984 11.8333V10ZM14.584 11.8333C14.8271 11.8333 15.0603 11.7368 15.2322 11.5648C15.4041 11.3929 15.5007 11.1598 15.5007 10.9167C15.5007 10.6736 15.4041 10.4404 15.2322 10.2685C15.0603 10.0966 14.8271 10 14.584 10C14.3409 10 14.1077 10.0966 13.9358 10.2685C13.7639 10.4404 13.6673 10.6736 13.6673 10.9167C13.6673 11.1598 13.7639 11.3929 13.9358 11.5648C14.1077 11.7368 14.3409 11.8333 14.584 11.8333ZM14.584 15.5C14.8271 15.5 15.0603 15.4034 15.2322 15.2315C15.4041 15.0596 15.5007 14.8264 15.5007 14.5833C15.5007 14.3402 15.4041 14.1071 15.2322 13.9352C15.0603 13.7632 14.8271 13.6667 14.584 13.6667C14.3409 13.6667 14.1077 13.7632 13.9358 13.9352C13.7639 14.1071 13.6673 14.3402 13.6673 14.5833C13.6673 14.8264 13.7639 15.0596 13.9358 15.2315C14.1077 15.4034 14.3409 15.5 14.584 15.5ZM10.9173 10.9167C10.9173 11.1598 10.8207 11.3929 10.6488 11.5648C10.4769 11.7368 10.2438 11.8333 10.0007 11.8333C9.75754 11.8333 9.52438 11.7368 9.35247 11.5648C9.18056 11.3929 9.08398 11.1598 9.08398 10.9167C9.08398 10.6736 9.18056 10.4404 9.35247 10.2685C9.52438 10.0966 9.75754 10 10.0007 10C10.2438 10 10.4769 10.0966 10.6488 10.2685C10.8207 10.4404 10.9173 10.6736 10.9173 10.9167ZM10.9173 14.5833C10.9173 14.8264 10.8207 15.0596 10.6488 15.2315C10.4769 15.4034 10.2438 15.5 10.0007 15.5C9.75754 15.5 9.52438 15.4034 9.35247 15.2315C9.18056 15.0596 9.08398 14.8264 9.08398 14.5833C9.08398 14.3402 9.18056 14.1071 9.35247 13.9352C9.52438 13.7632 9.75754 13.6667 10.0007 13.6667C10.2438 13.6667 10.4769 13.7632 10.6488 13.9352C10.8207 14.1071 10.9173 14.3402 10.9173 14.5833ZM5.41732 11.8333C5.66043 11.8333 5.89359 11.7368 6.0655 11.5648C6.23741 11.3929 6.33398 11.1598 6.33398 10.9167C6.33398 10.6736 6.23741 10.4404 6.0655 10.2685C5.89359 10.0966 5.66043 10 5.41732 10C5.1742 10 4.94104 10.0966 4.76914 10.2685C4.59723 10.4404 4.50065 10.6736 4.50065 10.9167C4.50065 11.1598 4.59723 11.3929 4.76914 11.5648C4.94104 11.7368 5.1742 11.8333 5.41732 11.8333ZM5.41732 15.5C5.66043 15.5 5.89359 15.4034 6.0655 15.2315C6.23741 15.0596 6.33398 14.8264 6.33398 14.5833C6.33398 14.3402 6.23741 14.1071 6.0655 13.9352C5.89359 13.7632 5.66043 13.6667 5.41732 13.6667C5.1742 13.6667 4.94104 13.7632 4.76914 13.9352C4.59723 14.1071 4.50065 14.3402 4.50065 14.5833C4.50065 14.8264 4.59723 15.0596 4.76914 15.2315C4.94104 15.4034 5.1742 15.5 5.41732 15.5Z" fill="#FFA500"/>
</svg>
