<svg width="20" height="20" viewBox="0 0 20 20" fill="none" xmlns="http://www.w3.org/2000/svg">
<path opacity="0.16" d="M10 19C14.9706 19 19 14.9706 19 10C19 5.02944 14.9706 1 10 1C5.02944 1 1 5.02944 1 10C1 14.9706 5.02944 19 10 19Z" fill="#FFA500"/>
<path d="M10 19C14.9706 19 19 14.9706 19 10C19 5.02944 14.9706 1 10 1C5.02944 1 1 5.02944 1 10C1 14.9706 5.02944 19 10 19Z" fill="#FFA500" stroke="#312D2A" stroke-width="2" stroke-linecap="round" stroke-linejoin="round"/>
<path d="M10 14H10.01V14.01H10V14Z" fill="#FFA500" stroke="#312D2A" stroke-width="3" stroke-linejoin="round"/>
<path d="M10 10V6V10Z" fill="#FFA500"/>
<path d="M10 10V6" stroke="#312D2A" stroke-width="2" stroke-linecap="round" stroke-linejoin="round"/>
</svg>
