<svg width="20" height="22" viewBox="0 0 20 22" fill="none" xmlns="http://www.w3.org/2000/svg">
<path d="M7.85603 4.14342H12.1417C12.1417 3.57509 11.916 3.03005 11.5141 2.62819C11.1122 2.22632 10.5672 2.00056 9.99888 2.00056C9.43056 2.00056 8.88552 2.22632 8.48365 2.62819C8.08179 3.03005 7.85603 3.57509 7.85603 4.14342ZM6.57031 4.14342C6.57031 3.2341 6.93154 2.36203 7.57452 1.71905C8.2175 1.07607 9.08957 0.714844 9.99888 0.714844C10.9082 0.714844 11.7803 1.07607 12.4232 1.71905C13.0662 2.36203 13.4275 3.2341 13.4275 4.14342H18.7846C18.9551 4.14342 19.1186 4.21114 19.2392 4.3317C19.3597 4.45226 19.4275 4.61578 19.4275 4.78627C19.4275 4.95677 19.3597 5.12028 19.2392 5.24084C19.1186 5.3614 18.9551 5.42913 18.7846 5.42913H17.6617L16.6186 17.946C16.5427 18.8566 16.1274 19.7053 15.455 20.3241C14.7827 20.9428 13.9023 21.2862 12.9886 21.2863H7.00917C6.09545 21.2862 5.21512 20.9428 4.54274 20.3241C3.87037 19.7053 3.45506 18.8566 3.37917 17.946L2.33603 5.42913H1.21317C1.04267 5.42913 0.87916 5.3614 0.758601 5.24084C0.638042 5.12028 0.570312 4.95677 0.570312 4.78627C0.570312 4.61578 0.638042 4.45226 0.758601 4.3317C0.87916 4.21114 1.04267 4.14342 1.21317 4.14342H6.57031ZM8.71317 9.07199C8.71317 8.90149 8.64544 8.73798 8.52488 8.61742C8.40432 8.49686 8.24081 8.42913 8.07031 8.42913C7.89982 8.42913 7.7363 8.49686 7.61574 8.61742C7.49519 8.73798 7.42746 8.90149 7.42746 9.07199V16.3577C7.42746 16.5282 7.49519 16.6917 7.61574 16.8123C7.7363 16.9328 7.89982 17.0006 8.07031 17.0006C8.24081 17.0006 8.40432 16.9328 8.52488 16.8123C8.64544 16.6917 8.71317 16.5282 8.71317 16.3577V9.07199ZM11.9275 8.42913C11.757 8.42913 11.5934 8.49686 11.4729 8.61742C11.3523 8.73798 11.2846 8.90149 11.2846 9.07199V16.3577C11.2846 16.5282 11.3523 16.6917 11.4729 16.8123C11.5934 16.9328 11.757 17.0006 11.9275 17.0006C12.098 17.0006 12.2615 16.9328 12.382 16.8123C12.5026 16.6917 12.5703 16.5282 12.5703 16.3577V9.07199C12.5703 8.90149 12.5026 8.73798 12.382 8.61742C12.2615 8.49686 12.098 8.42913 11.9275 8.42913Z" fill="white"/>
</svg>
